<svg width="250" height="174" fill="none" xmlns="http://www.w3.org/2000/svg"><path d="M1.182 171.13C-1.621 126.909 26.095 55.907 218.237 37.222M5.542 139.054c10.38-12.871 38.179-37.183 66.33-31.452 35.19 7.162 40.173 20.241 73.494 24.29 26.657 3.238 35.605 3.633 36.747 3.425" stroke="#677A61" stroke-width="2"/><path d="M23.292 122.861c8.512-5.19 28.214-10.526 38.926 9.654-8.512 4.671-28.214 9.28-38.926-9.654zm16.12-29.831c6.052-6.123 21.465-14.746 34.704-.251-6.16 5.692-21.726 13.711-34.704.252zm36.836-23.176c-4.166-10.971-6.431-34.975 17.841-43.223 3.594 10.863 5.056 34.716-17.84 43.223zm.439.737c3.537 11.23 16.414 30.862 39.62 19.54-3.902-10.736-17.289-29.674-39.62-19.54zm34.03-13.301c2.144 11.642 12.526 32.956 36.902 25.076-2.565-11.204-13.538-31.904-36.902-25.075zm36.794-9.53c-.969 10.283 2.626 30.925 24.762 31.217.515-10.038-3.716-30.335-24.762-31.218zm38.615-6.852c-.969 10.284 2.627 30.926 24.762 31.218.515-10.038-3.716-30.335-24.762-31.218zm25.996-2.985c3.769 9.487 16.166 25.576 35.606 14.034-4.055-9.03-16.852-24.48-35.606-14.034z" fill="#677A61"/><path d="M207.595 38.105c-.64-10.317 3.62-30.7 25.776-29.702.193 10.044-4.691 30.047-25.776 29.702zm-54.044 8.233c-1.829-10.028-.046-30.716 21.725-33.242 1.362 9.832-1.077 30.245-21.725 33.242zm-41.768 10.244c-2.964-11.615-2.542-36.111 22.851-41.175 2.398 11.43 1.184 35.665-22.851 41.175zm-38.205 50.36c3.598-7.258 14.822-19.514 30.931-10.473-3.823 6.905-15.362 18.666-30.931 10.473zm33.466 12.414c3.916-11.18 18-30.984 43.004-20.762-4.307 10.708-18.936 29.851-43.004 20.762zm33.907 12.736c1.192-11.786 10.253-34.335 36.954-30.244-1.682 11.418-11.428 33.452-36.954 30.244zm27.222 3.578c5.98-10.226 23.587-26.976 46.178-12.166-6.273 9.688-24.289 25.685-46.178 12.166z" fill="#677A61"/><path d="M141.519 130.678c11.65 2.15 33.385 13.02 27.13 39.299-11.243-2.609-32.409-14.12-27.13-39.299zm-34.139-10.549c10.224 5.983 26.968 23.597 12.15 46.182-9.686-6.276-25.677-24.299-12.15-46.182zm-46.429-12.94c11.713 1.77 33.79 11.925 28.396 38.394-11.322-2.241-32.852-13.056-28.396-38.394z" fill="#677A61"/></svg>