<svg width="120" height="173" fill="none" xmlns="http://www.w3.org/2000/svg"><path d="M1.72 171.805c30.534 1.935 79.56-17.202 92.461-149.873M23.868 168.794c8.888-7.167 25.674-26.362 21.718-45.8-4.946-24.298-13.977-27.738-16.772-50.746-2.237-18.406-2.51-24.585-2.366-25.373" stroke="#677A61" stroke-width="2"/><path d="M35.05 156.538c3.583-5.877 7.267-19.481-6.667-26.878-3.225 5.878-6.407 19.481 6.666 26.878zm20.597-11.13c4.228-4.179 10.182-14.821.173-23.963-3.93 4.254-9.467 15.002-.173 23.963zm16.003-25.435c7.575 2.877 24.15 4.441 29.844-12.319-7.5-2.481-23.97-3.491-29.844 12.319z" fill="#677A61"/><path d="M71.14 119.67c-7.754-2.443-21.309-11.334-13.491-27.357 7.413 2.694 20.49 11.937 13.491 27.357zm9.184-23.497c-8.038-1.48-22.755-8.65-17.314-25.48 7.736 1.77 22.03 9.347 17.314 25.48zm6.582-25.406c-7.101.67-21.354-1.813-21.556-17.097 6.931-.356 20.946 2.565 21.556 17.097zm4.73-26.663c-7.101.669-21.353-1.814-21.555-17.098 6.93-.356 20.946 2.566 21.555 17.098zm2.061-17.95c-6.55-2.602-17.66-11.162-9.69-24.585 6.236 2.8 16.904 11.636 9.69 24.585z" fill="#677A61"/><path d="M93.572 29.28c7.123.441 21.197-2.5 20.509-17.798-6.936-.133-20.748 3.24-20.509 17.798zm-5.685 37.316c6.924 1.263 21.209.032 22.953-15-6.789-.94-20.884.743-22.953 15zm-7.073 28.841c8.02 2.046 24.934 1.755 28.431-15.779-7.892-1.655-24.627-.817-28.431 15.779zm-34.774 26.38c5.012-2.485 13.475-10.235 7.232-21.358-4.767 2.64-12.889 10.607-7.231 21.358zm-8.57-23.108c7.719-2.705 21.393-12.43 14.335-29.694C44.41 71.99 31.193 82.091 37.469 98.71zm-8.795-23.412c8.138-.824 23.708-7.08 20.883-25.517-7.884 1.162-23.098 7.891-20.883 25.517zM26.204 56.5c7.062-4.129 18.627-16.286 8.401-31.885-6.69 4.331-17.735 16.771-8.4 31.885z" fill="#677A61"/><path d="M29.652 74.904c-1.485-8.044-8.99-23.051-27.135-18.732 1.8 7.763 9.749 22.377 27.135 18.732zm7.283 23.573c-4.131-7.06-16.293-18.62-31.887-8.39 4.333 6.689 16.777 17.73 31.887 8.39zm8.935 32.058c-1.221-8.087-8.234-23.332-26.51-19.606 1.547 7.817 9.015 22.683 26.51 19.606z" fill="#677A61"/></svg>